Coordinates
version=1
nRows=24
nColumns=24
inDegrees=yes

Units are S.I. units (second, meters, Newtons, ...)
Angles are in degrees.

endheader
time	pelvis_tilt	pelvis_list	pelvis_rotation	pelvis_tx	pelvis_ty	pelvis_tz	hip_flexion_r	hip_adduction_r	hip_rotation_r	knee_angle_r	ankle_angle_r	subtalar_angle_r	mtp_angle_r	hip_flexion_l	hip_adduction_l	hip_rotation_l	knee_angle_l	ankle_angle_l	subtalar_angle_l	mtp_angle_l	lumbar_extension	lumbar_bending	lumbar_rotation
      1.68000000	     61.17576550	     -1.69032073	     -1.67447354	      0.64848525	      1.01448449	     -0.20829759	     10.51781868	     -0.65593154	      8.74187764	    -21.20944518	    -22.28917515	     22.18411684	     51.76502657	     -3.80207330	    -10.15289577	      4.39018062	    -54.36310710	    -11.80612610	     31.62047210	     33.55744399	      0.00000000	      0.00000000	      0.00000000
      1.69000000	     61.17995211	     -1.69028200	     -1.67336801	      0.64848214	      1.01448546	     -0.20829894	     10.51254122	     -0.65261575	      8.73478777	    -21.20836356	    -22.28829084	     22.18959332	     51.77071625	     -3.80597506	    -10.15129379	      4.39103951	    -54.36305380	    -11.80975157	     31.61364340	     33.55827457	      0.00000000	      0.00000000	      0.00000000
      1.70000000	     61.18269259	     -1.69071601	     -1.67142797	      0.64848594	      1.01449108	     -0.20830591	     10.50901124	     -0.64835180	      8.72803256	    -21.20891587	    -22.28743430	     22.19403804	     51.77502013	     -3.80835106	    -10.15104853	      4.39223420	    -54.36308522	    -11.81393673	     31.60781564	     33.55980213	      0.00000000	      0.00000000	      0.00000000
      1.71000000	     61.18390953	     -1.69167348	     -1.66863246	      0.64849340	      1.01450362	     -0.20831469	     10.50679296	     -0.64324331	      8.72237416	    -21.21031499	    -22.28653421	     22.19761574	     51.77769130	     -3.80954287	    -10.15209520	      4.39362650	    -54.36252464	    -11.81841034	     31.60340881	     33.56199899	      0.00000000	      0.00000000	      0.00000000
      1.72000000	     61.18408087	     -1.69311645	     -1.66520236	      0.64850154	      1.01451773	     -0.20832082	     10.50516751	     -0.63751617	      8.71840102	    -21.21160833	    -22.28537490	     22.20053988	     51.77847603	     -3.81005507	    -10.15421483	      4.39509181	    -54.36081525	    -11.82281554	     31.60058442	     33.56477822	      0.00000000	      0.00000000	      0.00000000
      1.73000000	     61.18407509	     -1.69492797	     -1.66164229	      0.64850829	      1.01452691	     -0.20832415	     10.50326152	     -0.63163029	      8.71641330	    -21.21202533	    -22.28361014	     22.20302753	     51.77715771	     -3.81056800	    -10.15707814	      4.39647818	    -54.35769148	    -11.82675315	     31.59923982	     33.56799858	      0.00000000	      0.00000000	      0.00000000
      1.74000000	     61.18483144	     -1.69686700	     -1.65857121	      0.64851106	      1.01452857	     -0.20832948	     10.50012840	     -0.62625990	      8.71638406	    -21.21126803	    -22.28081950	     22.20526474	     51.77359338	     -3.81187965	    -10.16026637	      4.39759647	    -54.35321535	    -11.82984343	     31.59904298	     33.57147678	      0.00000000	      0.00000000	      0.00000000
      1.75000000	     61.18715948	     -1.69854139	     -1.65644146	      0.64850875	      1.01452580	     -0.20834035	     10.49489808	     -0.62214603	      8.71799959	    -21.20958886	    -22.27660012	     22.20738873	     51.76773433	     -3.81473790	    -10.16330242	      4.39827203	    -54.34767746	    -11.83179365	     31.59949780	     33.57500395	      0.00000000	      0.00000000	      0.00000000
      1.76000000	     61.19162098	     -1.69953946	     -1.65534938	      0.64850241	      1.01452389	     -0.20835196	     10.48699016	     -0.61996360	      8.72073561	    -21.20763959	    -22.27067584	     22.20948582	     51.75962651	     -3.81967202	    -10.16570419	      4.39842779	    -54.34145474	    -11.83245420	     31.60002958	     33.57836515	      0.00000000	      0.00000000	      0.00000000
      1.77000000	     61.19833010	     -1.69963200	     -1.65505510	      0.64849442	      1.01452362	     -0.20835768	     10.47621864	     -0.62022872	      8.72393502	    -21.20622128	    -22.26300165	     22.21159845	     51.74939243	     -3.82689279	    -10.16708205	      4.39817015	    -54.33489732	    -11.83185185	     31.60008088	     33.58136079	      0.00000000	      0.00000000	      0.00000000
      1.78000000	     61.20681690	     -1.69888521	     -1.65512872	      0.64848772	      1.01452142	     -0.20836004	     10.46277048	     -0.62319897	      8.72687664	    -21.20602921	    -22.25383399	     22.21372997	     51.73720220	     -3.83621231	    -10.16725160	      4.39783288	    -54.32827398	    -11.83019346	     31.59920778	     33.58382894	      0.00000000	      0.00000000	      0.00000000
      1.79000000	     61.21619668	     -1.69763836	     -1.65508523	      0.64848414	      1.01451732	     -0.20836666	     10.44719746	     -0.62878356	      8.72884763	    -21.20740374	    -22.24373702	     22.21583376	     51.72324503	     -3.84696664	    -10.16629237	      4.39793177	    -54.32179496	    -11.82783481	     31.59716298	     33.58566587	      0.00000000	      0.00000000	      0.00000000
      1.80000000	     61.22550434	     -1.69635891	     -1.65448841	      0.64848168	      1.01451714	     -0.20837829	     10.43041525	     -0.63652203	      8.72923628	    -21.21015510	    -22.23350891	     22.21777961	     51.70770935	     -3.85804398	    -10.16454046	      4.39904372	    -54.31570177	    -11.82521653	     31.59394835	     33.58683990	      0.00000000	      0.00000000	      0.00000000
      1.81000000	     61.23392870	     -1.69540763	     -1.65301039	      0.64847684	      1.01452471	     -0.20838968	     10.41366331	     -0.64565319	      8.72763673	    -21.21354140	    -22.22403622	     22.21930384	     51.69077063	     -3.86812716	    -10.16254039	      4.40165206	    -54.31036831	    -11.82278182	     31.58982082	     33.58739436	      0.00000000	      0.00000000	      0.00000000
      1.82000000	     61.24090153	     -1.69486686	     -1.65042010	      0.64847162	      1.01453714	     -0.20839983	     10.39840937	     -0.65529575	      8.72393147	    -21.21642732	    -22.21611024	     22.21996409	     51.67258154	     -3.87607457	    -10.16094253	      4.40598828	    -54.30633350	    -11.82089910	     31.58524504	     33.58744017	      0.00000000	      0.00000000	      0.00000000
      1.83000000	     61.24608188	     -1.69466346	     -1.64660843	      0.64847215	      1.01454928	     -0.20841002	     10.38607771	     -0.66475341	      8.71830501	    -21.21764742	    -22.21025447	     22.21912409	     51.65326789	     -3.88118888	    -10.16030206	      4.41191868	    -54.30419733	    -11.81981093	     31.58080242	     33.58714058	      0.00000000	      0.00000000	      0.00000000
      1.84000000	     61.24931458	     -1.69484404	     -1.64173998	      0.64848025	      1.01455958	     -0.20841641	     10.37761071	     -0.67372315	      8.71118393	    -21.21647953	    -22.20661687	     22.21599345	     51.63294047	     -3.88325072	    -10.16083032	      4.41894471	    -54.30440702	    -11.81961576	     31.57707547	     33.58669179	      0.00000000	      0.00000000	      0.00000000
      1.85000000	     61.25067274	     -1.69557789	     -1.63637403	      0.64849122	      1.01456845	     -0.20841597	     10.37316185	     -0.68216396	      8.70315787	    -21.21295018	    -22.20497075	     22.20974579	     51.61172284	     -3.88245571	    -10.16229021	      4.42636791	    -54.30705742	    -11.82027168	     31.57452776	     33.58630244	      0.00000000	      0.00000000	      0.00000000
      1.86000000	     61.25061120	     -1.69691151	     -1.63131303	      0.64849926	      1.01457351	     -0.20841355	     10.37220299	     -0.69001287	      8.69491902	    -21.20774666	    -22.20483287	     22.19971702	     51.58978172	     -3.87940815	    -10.16416387	      4.43356966	    -54.31181062	    -11.82161126	     31.57340329	     33.58617149	      0.00000000	      0.00000000	      0.00000000
      1.87000000	     61.25000701	     -1.69867154	     -1.62721247	      0.64850263	      1.01457158	     -0.20841506	     10.37388291	     -0.69705459	      8.68718823	    -21.20185030	    -22.20565484	     22.18563637	     51.56734708	     -3.87512518	    -10.16596009	      4.44023198	    -54.31795355	    -11.82336963	     31.57367168	     33.58646237	      0.00000000	      0.00000000	      0.00000000
      1.88000000	     61.24984308	     -1.70064856	     -1.62428603	      0.64850384	      1.01456345	     -0.20841943	     10.37723322	     -0.70296580	      8.68059005	    -21.19620402	    -22.20700647	     22.16780419	     51.54471916	     -3.87090546	    -10.16741641	      4.44636079	    -54.32455510	    -11.82523380	     31.57503743	     33.58727634	      0.00000000	      0.00000000	      0.00000000
      1.89000000	     61.25081295	     -1.70285324	     -1.62230499	      0.64850544	      1.01455392	     -0.20842079	     10.38127640	     -0.70742815	      8.67553087	    -21.19149470	    -22.20867710	     22.14713652	     51.52227120	     -3.86803823	    -10.16852138	      4.45214870	    -54.33067683	    -11.82690903	     31.57700911	     33.58863300	      0.00000000	      0.00000000	      0.00000000
      1.90000000	     61.25324721	     -1.70557136	     -1.62082525	      0.64850608	      1.01454707	     -0.20841529	     10.38527111	     -0.71021578	      8.67214529	    -21.18797434	    -22.21065813	     22.12504526	     51.50045928	     -3.86745691	    -10.16945312	      4.45781629	    -54.33558270	    -11.82818172	     31.57900552	     33.59046515	      0.00000000	      0.00000000	      0.00000000
      1.91000000	     61.25718714	     -1.70916214	     -1.61950815	      0.64850247	      1.01454188	     -0.20840581	     10.38885847	     -0.71120738	      8.67027443	    -21.18542994	    -22.21302423	     22.10318842	     51.47983742	     -3.86944926	    -10.17047539	      4.46348125	    -54.33888657	    -11.82896021	     31.58047292	     33.59263052	      0.00000000	      0.00000000	      0.00000000
